/* XPM */
static char *eea5b1f75cc848a8d8d4924b869b22882wS609rECflJDA1M[] = {
/* columns rows colors chars-per-pixel */
"27 57 13 1 ",
"  c None",
". c gray71",
"X c #BBBBBB",
"o c #E2E2E2",
"O c gray90",
"+ c #E6E6E6",
"@ c #E7E7E7",
"# c gray91",
"$ c #E9E9E9",
"% c #EAEAEA",
"& c gray95",
"* c #F8F8F8",
"= c white",
/* pixels */
"                           ",
"                           ",
"                           ",
"                           ",
"                           ",
"                           ",
"                      =X   ",
"                     ===X  ",
"                    =====X ",
"                   =======.",
"                  =======O ",
"                 =======O  ",
"                =======O   ",
"               =======O    ",
"              =======O     ",
"             =======#      ",
"            =======O       ",
"           =======O        ",
"          =======#         ",
"         =======#          ",
"        =======#           ",
"       =======#            ",
"      =======#             ",
"     =======#              ",
"    =======#               ",
"   =======#                ",
"  =======#                 ",
" =======#                  ",
" &======*                  ",
"  &======*                 ",
"   &======*                ",
"    &======*               ",
"     &======*              ",
"      &======*             ",
"       &======*            ",
"        &======*           ",
"         &======*          ",
"          &======*         ",
"           &======*        ",
"            &======*       ",
"             &======*      ",
"              &======*     ",
"               &======*    ",
"                &======*   ",
"                 &======*  ",
"                  &======* ",
"                   &=====O ",
"                    &===O  ",
"                     &=O   ",
"                      o    ",
"                           ",
"                           ",
"                           ",
"                           ",
"                           ",
"                           ",
"                           "
};
