/* XPM */
static char *result[] = {
/* columns rows colors chars-per-pixel */
"33 33 48 1 ",
"  c #B2B2B2",
". c gray73",
"X c gray74",
"o c #C3C3C3",
"O c gray77",
"+ c #C5C5C5",
"@ c #C6C6C6",
"# c gray78",
"$ c gray79",
"% c #CACACA",
"& c #CDCDCD",
"* c gray81",
"= c #D0D0D0",
"- c #D2D2D2",
"; c gray83",
": c gray84",
"> c #D8D8D8",
", c gray86",
"< c #DDDDDD",
"1 c gray87",
"2 c #DFDFDF",
"3 c #E1E1E1",
"4 c #E2E2E2",
"5 c gray89",
"6 c #E4E4E4",
"7 c gray90",
"8 c #E6E6E6",
"9 c #E7E7E7",
"0 c gray91",
"q c #E9E9E9",
"w c #EAEAEA",
"e c gray92",
"r c #EEEEEE",
"t c #EFEFEF",
"y c gray94",
"u c #F1F1F1",
"i c gray95",
"p c #F3F3F3",
"a c #F4F4F4",
"s c #F6F6F6",
"d c gray97",
"f c #F8F8F8",
"g c gray98",
"h c gray99",
"j c #FDFDFD",
"k c #FEFEFE",
"l c white",
"z c None",
/* pixels */
"zzzzzzzzzzzzzzzzzzzzzzzzzzzzzzzzz",
"z7<07<4011w5<89<2q32q926w33w829ez",
"zslllllllllllllllllllllllllllllf ",
"zslllllllllllllllllllllllllllllh.",
"zsllllllllllllllllllllllllllllllX",
"zdllllllllllklllllllllkllllllklf ",
"zfllllatuuyiuyyiuyiuttyytytttrtez",
"zslllk3zzzzzzzzzzzzzzzzzzzzzzzzzz",
"zdlllj$zzzzzzzzzzzzzzzzzzzzzzzzzz",
"zdllllOzzzzzzzzzzzzzzzzzzzzzzzzzz",
"zslllk;zzzzzzzzzzzzzzzzzzzzzzzzzz",
"zslllk;zzzzzzzzzzzzzzzzzzzzzzzzzz",
"zdllllOzzzzzzzzzzzzzzzzzzzzzzzzzz",
"zdlllj%zzzzzzzzzzzzzzzzzzzzzzzzzz",
"zslllk>zzzzzzzzzzzzzzzzzzzzzzzzzz",
"zflllk$zzzzzzzzzzzzzzzzzzzzzzzzzz",
"zslllk@zzzzzzzzzzzzzzzzzzzzzzzzzz",
"zslllj:zzzzzzzzzzzzzzzzzzzzzzzzzz",
"zdlllj*zzzzzzzzzzzzzzzzzzzzzzzzzz",
"zsllll@zzzzzzzzzzzzzzzzzzzzzzzzzz",
"zslllj=zzzzzzzzzzzzzzzzzzzzzzzzzz",
"zslllj:zzzzzzzzzzzzzzzzzzzzzzzzzz",
"zslllk#zzzzzzzzzzzzzzzzzzzzzzzzzz",
"zslllj#zzzzzzzzzzzzzzzzzzzzzzzzzz",
"zslllj>zzzzzzzzzzzzzzzzzzzzzzzzzz",
"zdlllj&zzzzzzzzzzzzzzzzzzzzzzzzzz",
"zsllllOzzzzzzzzzzzzzzzzzzzzzzzzzz",
"zdlllj-zzzzzzzzzzzzzzzzzzzzzzzzzz",
"zslllk;zzzzzzzzzzzzzzzzzzzzzzzzzz",
"zdlllkOzzzzzzzzzzzzzzzzzzzzzzzzzz",
"zslllk%zzzzzzzzzzzzzzzzzzzzzzzzzz",
"zpgjhf,zzzzzzzzzzzzzzzzzzzzzzzzzz",
"z+*o@-zzzzzzzzzzzzzzzzzzzzzzzzzzz"
};
