/* XPM */
static char *result[] = {
/* columns rows colors chars-per-pixel */
"33 32 52 1 ",
"  c #B2B2B2",
". c #B4B4B4",
"X c #BCBCBC",
"o c gray",
"O c #C3C3C3",
"+ c gray77",
"@ c #C6C6C6",
"# c gray78",
"$ c gray79",
"% c #CACACA",
"& c #CBCBCB",
"* c #CECECE",
"= c gray81",
"- c gray82",
"; c #D2D2D2",
": c gray83",
"> c gray84",
", c #D8D8D8",
"< c #DADADA",
"1 c gainsboro",
"2 c #DDDDDD",
"3 c gray87",
"4 c #DFDFDF",
"5 c gray88",
"6 c #E1E1E1",
"7 c #E2E2E2",
"8 c gray89",
"9 c #E4E4E4",
"0 c gray90",
"q c #E6E6E6",
"w c #E7E7E7",
"e c gray91",
"r c #E9E9E9",
"t c #EAEAEA",
"y c gray92",
"u c #ECECEC",
"i c #EEEEEE",
"p c #EFEFEF",
"a c gray94",
"s c #F1F1F1",
"d c gray95",
"f c #F3F3F3",
"g c gray96",
"h c #F6F6F6",
"j c gray97",
"k c #F8F8F8",
"l c gray98",
"z c gray99",
"x c #FDFDFD",
"c c #FEFEFE",
"v c white",
"b c None",
/* pixels */
"bbbbbbbbbbbbbbbbbbbbbbbbbbb;@+=Ob",
"bbbbbbbbbbbbbbbbbbbbbbbbbb1kzxlfb",
"bbbbbbbbbbbbbbbbbbbbbbbbbb%cvvvhb",
"bbbbbbbbbbbbbbbbbbbbbbbbbb@cvvvjb",
"bbbbbbbbbbbbbbbbbbbbbbbbbb>cvvvhb",
"bbbbbbbbbbbbbbbbbbbbbbbbbb:xvvvhb",
"bbbbbbbbbbbbbbbbbbbbbbbbbb+vvvvhb",
"bbbbbbbbbbbbbbbbbbbbbbbbbb*xvvvhb",
"bbbbbbbbbbbbbbbbbbbbbbbbbb,xvvvhb",
"bbbbbbbbbbbbbbbbbbbbbbbbbb$xvvvhb",
"bbbbbbbbbbbbbbbbbbbbbbbbbb#cvvvhb",
"bbbbbbbbbbbbbbbbbbbbbbbbbb,xvvvgb",
"bbbbbbbbbbbbbbbbbbbbbbbbbb=xvvvhb",
"bbbbbbbbbbbbbbbbbbbbbbbbbb+cvvvhb",
"bbbbbbbbbbbbbbbbbbbbbbbbbb-xvvvhb",
"bbbbbbbbbbbbbbbbbbbbbbbbbb>xvvvhb",
"bbbbbbbbbbbbbbbbbbbbbbbbbb#cvvvjb",
"bbbbbbbbbbbbbbbbbbbbbbbbbb&cvvvkb",
"bbbbbbbbbbbbbbbbbbbbbbbbbb<xvvvgb",
"bbbbbbbbbbbbbbbbbbbbbbbbbb&cvvvhb",
"bbbbbbbbbbbbbbbbbbbbbbbbbb@vvvvhb",
"bbbbbbbbbbbbbbbbbbbbbbbbbb:cvvvhb",
"bbbbbbbbbbbbbbbbbbbbbbbbbb:cvvvhb",
"bbbbbbbbbbbbbbbbbbbbbbbbbb@vvvvhb",
"bbbbbbbbbbbbbbbbbbbbbbbbbb&cvvvjb",
"bbbbbbbbbbbbbbbbbbbbbbbbbb8xvvvhb",
"byaipppappapiadpsdasddaddpgvvvvkb",
" kvcvvvvvvcvvvvvvvvvcvvvvvvvvvvjb",
"ovvvvvvvvvvvvvvvvvvvvvvvvvvvvvvhb",
"Xzvvvvvvvvvvvvvvvvvvvvvvvvvvvvvhb",
".kvvvvvvvvvvvvvvvvvvvvvvvvvvvvvhb",
"buw5qt46y94rr47t64eq29t43t72qe30b"
};
