/* XPM */
static char *result[] = {
/* columns rows colors chars-per-pixel */
"33 33 48 1 ",
"  c #B2B2B2",
". c gray70",
"X c #BCBCBC",
"o c gray74",
"O c #C3C3C3",
"+ c gray77",
"@ c #C6C6C6",
"# c gray78",
"$ c gray79",
"% c #CACACA",
"& c gray80",
"* c gray81",
"= c gray82",
"- c #D2D2D2",
"; c gray83",
": c gray84",
"> c #D8D8D8",
", c gray86",
"< c #DDDDDD",
"1 c gray87",
"2 c #DFDFDF",
"3 c gray88",
"4 c #E1E1E1",
"5 c #E2E2E2",
"6 c #E4E4E4",
"7 c #E6E6E6",
"8 c #E7E7E7",
"9 c gray91",
"0 c #E9E9E9",
"q c #EAEAEA",
"w c gray92",
"e c #EEEEEE",
"r c #EFEFEF",
"t c gray94",
"y c #F1F1F1",
"u c gray95",
"i c #F3F3F3",
"p c #F4F4F4",
"a c #F6F6F6",
"s c gray97",
"d c #F8F8F8",
"f c gray98",
"g c #FBFBFB",
"h c gray99",
"j c #FDFDFD",
"k c #FEFEFE",
"l c white",
"z c None",
/* pixels */
"zz.Xo zzzzzzzzzzzzzzzzzzzzzzzzzzz",
"zwdgldwzzzzzzzzzzzzzzzzzzzzzzzzzz",
"z8llllrzzzzzzzzzzzzzzzzzzzzzzzzzz",
"z3lllkezzzzzzzzzzzzzzzzzzzzzzzzzz",
"z8llllrzzzzzzzzzzzzzzzzzzzzzzzzzz",
"zqllllrzzzzzzzzzzzzzzzzzzzzzzzzzz",
"z2llllrzzzzzzzzzzzzzzzzzzzzzzzzzz",
"z4lllltzzzzzzzzzzzzzzzzzzzzzzzzzz",
"zwllllrzzzzzzzzzzzzzzzzzzzzzzzzzz",
"z6llllrzzzzzzzzzzzzzzzzzzzzzzzzzz",
"z2lllktzzzzzzzzzzzzzzzzzzzzzzzzzz",
"z0llllrzzzzzzzzzzzzzzzzzzzzzzzzzz",
"zqllllrzzzzzzzzzzzzzzzzzzzzzzzzzz",
"z2lllltzzzzzzzzzzzzzzzzzzzzzzzzzz",
"z4lllluzzzzzzzzzzzzzzzzzzzzzzzzzz",
"zqlllltzzzzzzzzzzzzzzzzzzzzzzzzzz",
"z4lllluzzzzzzzzzzzzzzzzzzzzzzzzzz",
"z<llllyzzzzzzzzzzzzzzzzzzzzzzzzzz",
"z0lllltzzzzzzzzzzzzzzzzzzzzzzzzzz",
"z7lllltzzzzzzzzzzzzzzzzzzzzzzzzzz",
"z<lllkuzzzzzzzzzzzzzzzzzzzzzzzzzz",
"z6lllltzzzzzzzzzzzzzzzzzzzzzzzzzz",
"zqlllltzzzzzzzzzzzzzzzzzzzzzzzzzz",
"z2lllluzzzzzzzzzzzzzzzzzzzzzzzzzz",
"z1lllluzzzzzzzzzzzzzzzzzzzzzzzzzz",
"z9llllrzzzzzzzzzzzzzzzzzzzzzzzzzz",
"z5llllp4$+;;+&>$@:=+*:#$>&+-;+%,z",
"z<llllljklkkljkkkjjljjkjjjljkkkd-",
"z7lllllllllllllllllllllllllllllh@",
"z9lllllllllllllllllllllllllllllj+",
"z1lllllllllllllllllllllllllllllf*",
"z7asaadaasssssadaaasaaadassaassiO",
"zzzzzzzzzzzzzzzzzzzzzzzzzzzzzzzzz"
};
