/* XPM */
static char *result[] = {
/* columns rows colors chars-per-pixel */
"31 33 47 1 ",
"  c #B2B2B2",
". c #B4B4B4",
"X c #BCBCBC",
"o c gray",
"O c gray77",
"+ c #C6C6C6",
"@ c gray78",
"# c gray79",
"$ c #CACACA",
"% c gray80",
"& c #CDCDCD",
"* c #D0D0D0",
"= c gray82",
"- c gray83",
"; c gray84",
": c #D8D8D8",
"> c gainsboro",
", c #DDDDDD",
"< c gray87",
"1 c #DFDFDF",
"2 c gray88",
"3 c #E1E1E1",
"4 c #E2E2E2",
"5 c gray89",
"6 c gray90",
"7 c #E6E6E6",
"8 c #E7E7E7",
"9 c gray91",
"0 c #E9E9E9",
"q c #EAEAEA",
"w c gray92",
"e c #EEEEEE",
"r c #EFEFEF",
"t c gray94",
"y c #F1F1F1",
"u c gray95",
"i c #F4F4F4",
"p c gray96",
"a c #F6F6F6",
"s c gray97",
"d c #F8F8F8",
"f c gray98",
"g c gray99",
"h c #FDFDFD",
"j c #FEFEFE",
"k c white",
"l c None",
/* pixels */
"lllllllllllllllllllllllllllllll",
"uasasasaaapaaaasdasaaaaapdsaaa6",
"fkkkkkkkkkkkkkkkkkkkkkkkkkkkkk,",
"hkkkkkkkkkkkkkkkkkkkkkkkkkkkkk9",
"gkkkkkkkkkkkkkkkkkkkkkkkkkkkkk6",
"djjjhkhhhjhhkhhjjhjkjjkjhkkkkk,",
">$+;-O&:@@;*+=;@#:%+--+#3ikkkk4",
"lllllllllllllllllllllllllrkkkk9",
"lllllllllllllllllllllllllykkkk<",
"lllllllllllllllllllllllllykkkk2",
"llllllllllllllllllllllllltkkkkq",
"lllllllllllllllllllllllllykkkk5",
"lllllllllllllllllllllllllyjkkk,",
"lllllllllllllllllllllllllykkkk7",
"lllllllllllllllllllllllllykkkk8",
"lllllllllllllllllllllllllukkkk,",
"lllllllllllllllllllllllllykkkk1",
"llllllllllllllllllllllllltkkkk0",
"lllllllllllllllllllllllllukkkk3",
"llllllllllllllllllllllllltkkkk2",
"lllllllllllllllllllllllllekkkk0",
"lllllllllllllllllllllllllrkkkk8",
"llllllllllllllllllllllllltjkkk1",
"lllllllllllllllllllllllllrkkkk5",
"lllllllllllllllllllllllllrkkkkq",
"llllllllllllllllllllllllltkkkk3",
"lllllllllllllllllllllllllrkkkk3",
"lllllllllllllllllllllllllrkkkkq",
"llllllllllllllllllllllllltkkkk7",
"lllllllllllllllllllllllllejkkk1",
"llllllllllllllllllllllllltkkkk8",
"lllllllllllllllllllllllllwskgdw",
"llllllllllllllllllllllllll oX.l"
};
