/* XPM */
static char *_c3fa9194c214580e41fe112206efe40VSvFvRFpbQc9K3Pj[] = {
/* columns rows colors chars-per-pixel */
"27 57 13 1 ",
"  c None",
". c gray71",
"X c #BBBBBB",
"o c #E2E2E2",
"O c gray90",
"+ c #E6E6E6",
"@ c #E7E7E7",
"# c gray91",
"$ c #E9E9E9",
"% c #EAEAEA",
"& c gray95",
"* c #F8F8F8",
"= c white",
/* pixels */
"                           ",
"                           ",
"                           ",
"                           ",
"                           ",
"                           ",
"                           ",
"    o                      ",
"   +=&                     ",
"  +===&                    ",
" +=====&                   ",
" *======&                  ",
"  *======&                 ",
"   *======&                ",
"    *======&               ",
"     *======&              ",
"      *======&             ",
"       *======&            ",
"        *======&           ",
"         *======&          ",
"          *======&         ",
"           *======&        ",
"            *======&       ",
"             *======&      ",
"              *======&     ",
"               *======&    ",
"                *======&   ",
"                 *======&  ",
"                  *======& ",
"                  %======= ",
"                 %=======  ",
"                %=======   ",
"               %=======    ",
"              %=======     ",
"             %=======      ",
"            %=======       ",
"           +=======        ",
"          %=======         ",
"         +=======          ",
"        +=======           ",
"       +=======            ",
"      %=======             ",
"     +=======              ",
"    +=======               ",
"   +=======                ",
"  +=======                 ",
" +=======                  ",
".=======                   ",
" X=====                    ",
"  X===                     ",
"   X=                      ",
"                           ",
"                           ",
"                           ",
"                           ",
"                           ",
"                           "
};
